<?xml version="1.0" encoding="UTF-8" standalone="no"?>
<svg xmlns="http://www.w3.org/2000/svg" viewBox="0 0 1024 1024">
	<style>
		g { display: none; }
		g:target { display: inline; }
	</style>
	<g id="icon_58890" data-name="angie">
		<path d="M781.5 90h-539.1c-133.9 0-242.5 108.5-242.5 242.5v20.2c0 133.9 108.5 242.5 242.5 242.5h2l131.8 339 132.3-339h273c133.9 0 242.5-108.5 242.5-242.5v-20.2c0-133.9-108.5-242.5-242.5-242.5zM886.4 346.2c0 62.8-50.9 113.7-113.7 113.7h-327.3l-68.9 207.1-54.9-207.1h-69.7c-62.8 0-113.7-50.9-113.7-113.7v-9.5c0-62.8 50.9-113.7 113.7-113.7h520.8c62.8 0 113.7 50.9 113.7 113.7v9.5h0z"></path>
	</g>
	<g id="icon_59665" data-name="angle-down">
		<path d="M1024 298.6q0 13.3-10.3 23.6l-478.1 478.1q-10.3 10.3-23.6 10.3t-23.6-10.3l-478.1-478.1q-10.3-10.3-10.3-23.6t10.3-23.6l51.3-51.3q10.3-10.3 23.6-10.3t23.6 10.3l403.2 403.2 403.2-403.2q10.3-10.3 23.6-10.3t23.6 10.3l51.3 51.3q10.3 10.3 10.3 23.6z"></path>
	</g>
	<g id="icon_59668" data-name="angle-left">
		<path d="M810.6 85.2q0 13.3-10.3 23.6l-403.2 403.2 403.2 403.2q10.3 10.3 10.3 23.6t-10.3 23.6l-51.3 51.3q-10.3 10.3-23.6 10.3t-23.6-10.3l-478.1-478.1q-10.3-10.3-10.3-23.6t10.3-23.6l478.1-478.1q10.3-10.3 23.6-10.3t23.6 10.3l51.3 51.3q10.3 10.3 10.3 23.6z"></path>
	</g>
	<g id="icon_59669" data-name="angle-right">
		<path d="M810.6 512q0 13.3-10.3 23.6l-478.1 478.1q-10.3 10.3-23.6 10.3t-23.6-10.3l-51.3-51.3q-10.3-10.3-10.3-23.6t10.3-23.6l403.2-403.2-403.2-403.2q-10.3-10.3-10.3-23.6t10.3-23.6l51.3-51.3q10.3-10.3 23.6-10.3t23.6 10.3l478.1 478.1q10.3 10.3 10.3 23.6z"></path>
	</g>
	<g id="icon_57509" data-name="arrow-down">
		<path d="M320 0h384v64h-384zM320 128h384v64h-384zM320 256h384v64h-384zM512 1024l448-448h-256v-192h-384v192h-256z"></path>
	</g>
	<g id="icon_57559" data-name="arrow-left-6">
		<path d="M512 0c282.8 0 512 229.2 512 512s-229.2 512-512 512-512-229.2-512-512 229.2-512 512-512zM512 896c212.1 0 384-171.9 384-384s-171.9-384-384-384c-212.1 0-384 171.9-384 384 0 212.1 171.9 384 384 384zM448 736v-160h320v-128h-320v-160l-224 224z"></path>
	</g>
	<g id="icon_57561" data-name="arrow-left-7">
		<path d="M387.1 94.6l-365.7 365.7c-28.6 28.6-28.6 74.9 0 103.4l365.7 365.7c28.6 28.6 74.9 28.6 103.4 0 28.6-28.6 28.6-74.9 0-103.4l-240.9-240.9h701.1c40.4 0 73.1-32.7 73.1-73.1 0-40.4-32.7-73.1-73.1-73.1h-701.1l240.9-240.9c14.3-14.3 21.4-33 21.4-51.7s-7.1-37.4-21.4-51.7c-28.6-28.6-74.9-28.6-103.4 0z"></path>
	</g>
	<g id="icon_57586" data-name="arrow-right-11">
		<path d="M512 0c-282.8 0-512 229.2-512 512s229.2 512 512 512 512-229.2 512-512-229.2-512-512-512zM512 896c-212.1 0-384-171.9-384-384s171.9-384 384-384c212.1 0 384 171.9 384 384 0 212.1-171.9 384-384 384zM576 736v-160h-320v-128h320v-160l224 224z"></path>
	</g>
	<g id="icon_59879" data-name="arrow-right-28">
		<path d="M1024 1024h-1024v-1024h1024l0 1024zM128 128v768h768l0-768h-768zM576 736l224-224-224-224v160h-320v128h320v160z"></path>
	</g>
	<g id="icon_57560" data-name="arrow-right-6">
		<path d="M512 0c-282.8 0-512 229.2-512 512s229.2 512 512 512 512-229.2 512-512-229.2-512-512-512zM512 928c-229.8 0-416-186.2-416-416s186.2-416 416-416 416 186.2 416 416-186.2 416-416 416zM813.3 466.7l-256-256c-25-25-65.5-25-90.5 0s-25 65.5 0 90.5l146.7 146.7h-357.5c-35.3 0-64 28.7-64 64s28.7 64 64 64h357.5l-146.7 146.7c-25 25-25 65.5 0 90.5 12.5 12.5 28.9 18.7 45.3 18.7s32.8-6.2 45.3-18.7l256-256c25-25 25-65.5 0-90.5z"></path>
	</g>
	<g id="icon_57566" data-name="arrow-right-7">
		<path d="M636.9 929.4l365.7-365.7c28.6-28.6 28.6-74.9 0-103.4l-365.7-365.7c-28.6-28.6-74.9-28.6-103.4 0-28.6 28.6-28.6 74.9 0 103.4l240.9 240.9h-701.1c-40.4 0-73.1 32.7-73.1 73.1s32.7 73.1 73.1 73.1h701.1l-240.9 240.9c-14.3 14.3-21.4 33-21.4 51.7s7.1 37.4 21.4 51.7c28.6 28.6 74.9 28.6 103.4 0z"></path>
	</g>
	<g id="icon_58889" data-name="avvo">
		<path d="M536.6 691c225.5-241.4 321.8-400 363.7-487.2l123.8 461.9c-153.8-88.6-312.8-62.4-487.4 25.3zM90.1 937.3c108.8-326.7 112.2-609.3-90.1-850.7l864.7 85.2c-86 48.6-241.5 157.8-472.3 403.6-133 141.7-231.1 263.7-302.3 361.9z"></path>
	</g>
	<g id="icon_58888" data-name="bbb">
		<path d="M507 2.5c-59.6 124-272.5 244.3-10.1 435.8 72.4 53.9 193.9 86.1 131.8 212.8-5.5 9.7 4.1 12.3 12.7 5.1 88.6-102.8 232.8-264.9 111.4-397.3-68.9-74.6-210.3-123.8-238.6-194.6-5.5-13.7 0.6-33.6 8.1-49.2 6.1-14.6-12-18.4-15.2-12.7zM510.2 2.5c-59.6 124-272.5 244.3-10.1 435.8 72.4 53.9 193.9 86.1 131.8 212.8-5.5 9.7 4.1 12.3 12.7 5.1 88.6-102.8 232.8-264.9 111.4-397.3-68.9-74.6-210.3-123.8-238.6-194.6-5.5-13.7 0.6-33.6 8.1-49.2 6.1-14.6-12-18.4-15.2-12.7zM384.4 432.2c-30.7 83.5-185.8 179.6 21.3 290.5 47.9 28.6 109.8 64.4 103 116.7-2.6 6.7 3.4 7.6 8 2.2 68.2-78.2 119.4-190 35.9-265-43.6-42.3-146.9-65.1-158.1-137.5 2.5-9.9-8.7-10.8-10.2-6.9zM244 872.1h523.2v64.3h-523.2v-64.3zM244.6 870.3l-23.1 64.9 39.6 0.6-16.5-65.5zM766.7 870.3l23.1 64.9-39.6 0.6 16.5-65.5zM354.3 919.1l38.6 104.9 226.8-0.8 35.5-104.2h-300.9z"></path>
	</g>
	<g id="icon_57393" data-name="blogger">
		<path d="M704 1024h-384q-87 0-160.5-43t-116.5-116.5-43-160.5v-384q0-87 43-160.5t116.5-116.5 160.5-43h192q87 0 160.5 43t116.5 116.5 43 160.5q0 26 18.5 45t45.5 19h64q26 0 45 18.5t19 45.5v256q0 87-43 160.5t-116.5 116.5-160.5 43zM512 256h-192q-27 0-45.5 18.5t-18.5 45 18.5 45.5 45.5 19h192q27 0 45.5-19t18.5-45.5-19-45-45-18.5zM704 640h-384q-27 0-45.5 18.5t-18.5 45 18.5 45.5 45.5 19h384q26 0 45-19t19-45.5-19-45-45-18.5z"></path>
	</g>
	<g id="icon_64193" data-name="call">
		<path d="M831.9 480.3a31.7-31.7 1 1 0 63.5 0a352.3-352.3 1 0 0-352.3-352.3a31.7-31.7 1 0 0-31.7 31.7a31.7-31.7 1 0 0 31.7 31.7a288.8-288.8 1 0 1 288.8 288.8zm59.4 406.5a246.8-246.8 1 0 1-176.1 72.7a251.9-251.9 1 0 1-124.9-32.8a1373.2-1373.2 1 0 1-492.6-493.6a248.8-248.8 1 0 1 38.9-301.1a235.5-235.5 1 0 1 160.8-68.6l80.9 216.1l-81.9 81.9a32.8-32.8 1 0 0-3.1 39.9a1184.8-1184.8 1 0 0 328.7 329.7a32.8-32.8 1 0 0 39.9-5.1l81.9-80.9l216.1 80.9a232.5-232.5 1 0 1-68.6 160.8zm111.6-213l-256-96.3a30.7-30.7 1 0 0-33.8 8.2l-77.8 76.8a1116.2-1116.2 1 0 1-274.4-274.4l77.8-77.8a31.7-31.7 1 0 0 7.2-33.8l-96.3-256a31.7-31.7 1 0 0-29.7-20.5h-18.4a295.9-295.9 1 0 0-209.9 87a312.3-312.3 1 0 0-49.2 377.9a1434.7-1434.7 1 0 0 516.1 516.1a311.3-311.3 1 0 0 377.9-48.1a295.9-295.9 1 0 0 87-211v-18.4a31.7-31.7 1 0 0-20.5-29.7zm-459.8-673.8a31.7-31.7 1 0 0-31.7 31.7a31.7-31.7 1 0 0 31.7 31.7a416.8-416.8 1 0 1 416.8 416.8a31.7-31.7 1 1 0 63.5 0a480.3-480.3 1 0 0-480.3-480.3z"></path>
	</g>
	<g id="icon_59206" data-name="cancel-2">
		<path d="M696 512.1l312.7 312.7c20.3 20.3 20.3 53.3 0 73.6l-110.4 110.4c-20.3 20.3-53.3 20.3-73.6 0l-312.8-312.7-312.8 312.7c-20.3 20.3-53.3 20.3-73.6 0l-110.4-110.4c-20.3-20.3-20.3-53.3 0-73.6l312.8-312.7-312.8-312.8c-20.3-20.3-20.3-53.3 0-73.6l110.5-110.4c20.3-20.3 53.3-20.3 73.6 0l312.7 312.8 312.8-312.8c20.3-20.3 53.3-20.3 73.6 0l110.4 110.4c20.3 20.3 20.3 53.3 0 73.6l-312.7 312.7z"></path>
	</g>
	<g id="icon_58885" data-name="city-search">
		<path d="M512 277.6c-8.9 0-17.6 0.5-26.3 1.5v183.5l-162-90.2c-29 39-46.1 87.3-46.1 139.6 0 129.5 104.9 234.4 234.4 234.4s234.4-104.9 234.4-234.4c0-129.5-104.9-234.4-234.4-234.4zM512 139.6c205.3 0 372.4 167 372.4 372.4s-167 372.4-372.4 372.4-372.4-167-372.4-372.4 167-372.4 372.4-372.4M512 0c-282.8 0-512 229.2-512 512 0 282.8 229.2 512 512 512s512-229.2 512-512c0-282.8-229.2-512-512-512v0z"></path>
	</g>
	<g id="icon_57653" data-name="close">
		<path d="M1024 851.9l-172.1 172.1-339.9-339.9-339.9 339.9-172.1-172.1 339.9-339.9-339.9-339.9 172.1-172.1 339.9 339.9 339.9-339.9 172.1 172.1-339.9 339.9 339.9 339.9z"></path>
	</g>
	<g id="icon_57655" data-name="close-3">
		<path d="M512 0c-282.8 0-512 229.2-512 512s229.2 512 512 512c282.8 0 512-229.2 512-512s-229.2-512-512-512zM819.7 716.3l-103.4 103.4-204.3-204.3-204.3 204.3-103.4-103.4 204.3-204.3-204.3-204.3 103.4-103.4 204.3 204.3 204.3-204.3 103.4 103.4-204.3 204.3 204.3 204.3z"></path>
	</g>
	<g id="icon_57411" data-name="delicious">
		<path d="M853.4 0h-682.7c-93.9 0-170.7 76.8-170.7 170.7v682.6c0 93.9 76.8 170.7 170.7 170.7h682.7c93.9 0 170.6-76.8 170.6-170.7v-682.6c0-93.9-76.8-170.7-170.6-170.7zM960 853.3c0 28.3-11.1 55.1-31.4 75.3-20.2 20.2-46.9 31.4-75.3 31.4h-341.4v-448h-448v-341.3c0-28.3 11.2-55 31.4-75.3 20.2-20.2 47-31.4 75.3-31.4h341.3v448h448v341.3z"></path>
	</g>
	<g id="icon_59849" data-name="deviantart">
		<path d="M561.9 407c-39-2.3-84.1 0-136.2 8.9l120.3 216.9 478.1-131.3c-5.2-12.3-12.7-24.2-22.7-35.8-49.5-57.3-156.7-108.4-273.6-131.4l0 0c-114.6-26.9-238.8-25.7-366-6.5-4.6 0.7-9.1 1.4-13.7 2.2l-42.3-78.3c-41.1 5.5-79.8 14-115.6 25.5l40.3 84.2c-65.8 25.5-119.7 61.8-158.7 105.4-64.2 73.1-89.6 164.9-58.7 254.4 6.2 18 14.6 35.2 24.9 51.2l478.1-131.3-132.7-245.8c4.6-0.9 9.2-1.8 13.9-2.6 214.7-38.3 332.1 20.9 396.4 83.8l-163.6 39.6-68.3-109zM174.7 626.4c-14.8-67.4-3-142.5 90.4-192.6l73.1 152.9-163.5 39.6z"></path>
	</g>
	<g id="icon_57874" data-name="envelop-2">
		<path d="M651.2 530.4l372.8 257.1v-591.9zM0 195.6v591.9l372.8-257.1zM512 655.4l-89-79.9-423 256.5h1024l-423-256.5zM993.3 192h-962.6l481.3 361.9z"></path>
	</g>
	<g id="icon_57353" data-name="facebook">
		<path d="M592.6 1024h-191.9v-512h-128v-176.4l128-0.1-0.2-104c0-144 39-231.5 208.6-231.5h141.2v176.5h-88.2c-66 0-69.2 24.7-69.2 70.7l-0.3 88.3h158.7l-18.7 176.4-139.9 0.1-0.1 512z"></path>
	</g>
	<g id="icon_57361" data-name="feed">
		<path d="M136.3 750.9c-75.2 0-136.3 61.3-136.3 136.1 0 75.2 61.1 135.8 136.3 135.8 75.5 0 136.5-60.6 136.5-135.8 0-74.7-61-136.1-136.5-136.1zM0.2 347.9v196.3c127.8 0 248 50 338.5 140.5 90.4 90.3 140.3 211 140.3 339.3h197.1c0-372.8-303.3-676.1-675.9-676.1zM0.4 0v196.4c455.8 0 826.8 371.3 826.8 827.6h196.9c0-564.5-459.3-1024-1023.6-1024z"></path>
	</g>
	<g id="icon_57370" data-name="flickr">
		<path d="M800 736q-93 0-158.5-65.5t-65.5-158.5 65.5-158.5 158.5-65.5 158.5 65.5 65.5 158.5-65.5 158.5-158.5 65.5zM224 736q-93 0-158.5-65.5t-65.5-158.5 65.5-158.5 158.5-65.5 158.5 65.5 65.5 158.5-65.5 158.5-158.5 65.5z"></path>
	</g>
	<g id="icon_57488" data-name="font-size">
		<path d="M0 438.9h438.9v146.3h-146.3v438.9h-146.3v-438.9h-146.3zM1024 146.3h-287.7v877.7h-156v-877.7h-287.7v-146.3h731.4z"></path>
	</g>
	<g id="icon_60535" data-name="fullscreen-alt">
		<path d="M941.2 850.8l-210.8-210.8-90.5 90.5 210.8 210.8-82.8 82.8h256v-256zM82.8 173.2l210.8 210.8 90.5-90.5-210.8-210.8 82.8-82.8h-256v256zM850.8 82.8l-210.8 210.8 90.5 90.5 210.8-210.8 82.8 82.8v-256h-256zM384 730.5l-90.5-90.5-210.8 210.8-82.8-82.8v256h256l-82.8-82.8z"></path>
	</g>
	<g id="icon_60537" data-name="fullscreen-exit-alt">
		<path d="M896 640h-256v256l82.8-82.8 210.8 210.8 90.5-90.5-210.8-210.8zM813.2 301.2l210.8-210.8-90.5-90.5-210.8 210.8-82.8-82.8v256h256zM90.5 0l-90.5 90.5 210.8 210.8-82.8 82.8h256v-256l-82.8 82.8zM210.8 722.8l-210.8 210.8 90.5 90.5 210.8-210.8 82.8 82.8v-256h-256z"></path>
	</g>
	<g id="icon_57388" data-name="github">
		<path d="M235.3 248.7c-50.8 0-94.5 16.8-131.1 50.4-38.1 35.9-57.1 80.7-57.1 134.4 0 35.9 10.4 69.5 31.3 100.8 18.7 29.1 38.2 47.8 63.8 56v2.2c-25.6 10.4-37 36.6-37 78.4 0 32.1 11.4 56 37 71.7v2.2c-70.7 23.1-103 66.1-103 128.8 0 54.5 23.7 94.5 70.1 119.9 36.6 20.2 83.6 30.3 140.3 30.3 138.2 0 207.4-57.9 207.4-173.7 0-72.4-53.3-116.9-160.1-133.3-24.6-3.7-43.3-12.7-56-26.9-9.7-9.7-14.5-19.4-14.5-29.1 0-27.6 15-43.7 44.8-48.2 45.6-6.7 82.7-27.8 111.5-63.3 28.8-35.5 43.1-77.1 43.1-124.9 0-14.9-4.5-31-10.5-48.2 19.4-4.5 33-8.6 43.3-12.3v-115.4c-45.1 17.9-87 26.9-122.8 26.9-31.4-17.9-63.8-26.9-100.4-26.9zM247.6 807.8c62.7 0 94.1 19 94.1 57.1 0 40.3-28.8 60.5-86.3 60.5-65.7 0-98.6-19.4-98.6-58.3 0-39.6 30.2-59.4 90.7-59.4zM239.8 512c-47.1 0-70.6-25.8-70.6-77.3 0-55.3 23.5-82.9 70.6-82.9 22.4 0 40 8.6 52.7 25.8 10.5 15.7 15.7 34.4 15.7 56 0 52.3-22.8 78.4-68.3 78.4zM580.4 0c-21.7 0-40.1 8.2-55.5 24.6-15.3 16.4-23 36.2-23 59.4 0 22.4 7.7 41.8 23 58.3 15.3 16.4 33.8 24.6 55.5 24.6 20.9 0 39-8.2 54.3-24.6 15.3-16.4 23-35.8 23-58.3 0-23.2-7.6-42.9-23-59.4-15.3-16.4-33.4-24.6-54.3-24.6zM643.1 256h-126.6c1.5 14.3-0.6 36-0.6 71.1v348.4c0 35.9 2.1 64.8 0.6 76h126.6c-1.5-16.4-5.4-44.7-5.4-82.8v-343.9c0-32.9 3.9-54.6 5.4-68.9zM922.3 644.2c-32.9 0-49.1-25-49.1-75.1v-206.6h49.9c9 0 17-0.5 27.1 0.2 10.1 0.7 14.2 0.2 19.3 0.2v-107h-96.3v-47.6c0-17.9 2.8-34.3 5.1-44.5h-130c2.2 10.2 2 25.9 2 46.8v45.4h-56.3v107c15.4-2.2 29.1-3.4 38.8-3.4l17.5 1.1v202.8c0 62.7 8 108.7 23.6 137.8 20.9 38.8 57.6 58.3 112.1 58.3 38.8 0 73.1-7.5 98.7-22.4v-112c-20.5 12.7-39.4 19-62.5 19z"></path>
	</g>
	<g id="icon_64610" data-name="google-2">
		<path d="M0.4 495.8a323.9-323.9 1 0 1 324.6-307.7a329.7-329.7 1 0 1 217 80.3a1166.8-1166.8 1 0 1-82.3 84.9c-73.9-50.5-179.5-65.4-253.3-6.5a206.7-206.7 1 0 0-9.1 323.3c99.1 89.4 286.3 44.7 313.6-92-61.5-1.3-124.4 0-185.9-1.9 0-36.9 0-73.9 0-110.8 103.7 0 207.3-0.6 311 0.6 5.8 86.2-5.2 178.8-59 250.1-81 113.4-243.6 146.4-370.6 98.5a324.6-324.6 1 0 1-206-318.7zm837.7-123.1h92c0.6 30.4 0.6 61.5 0.6 92 31.1 0.6 62.2 0.6 93.3 1.3v92c-31.1 0-62.2 0-93.3 0.6 0 31.1 0 61.5-0.6 92.6h-92.6c0-31.1 0-61.5-0.6-92.6l-92.6-0.6v-92l92.6-1.3z"></path>
	</g>
	<g id="icon_57348" data-name="google-plus">
		<path d="M764.1 444.2c-33.5 29.5-77.7 47.4-126 47.4c-48.4 0-92.6-17.9-126-47.4c-33.5 29.5-77.7 47.4-126 47.4c-48.4 0-92.6-17.9-126-47.4c-33.5 29.5-77.7 47.4-126 47.4c-10.8 0-21.2-1.1-31.5-2.8v439.2C102.4 962.2 130.6 989.9 165.4 989.9h693.2C893.4 989.9 921.6 962.2 921.6 928V488.8c-10.3 1.7-20.8 2.8-31.5 2.8C841.7 491.6 797.5 473.7 764.1 444.2zM821.8 869.3c-39 49-111 63.5-169.6 44.2c-62.2-20-107.4-81.2-106-145.4c-3.1-79.3 68-152.6 149.2-153.5c41.4-3.4 81.6 12.3 113 37.9c-12.8 13.8-25.9 27.4-39.9 40.2c-27.5-16.4-60.8-28.8-93-17.8c-52 14.5-83.5 74.5-64.2 124.2c15.9 51.9 80.5 80.4 131.1 58.6c26.2-9.2 43.5-32.8 51.1-58.2c-30-0.6-60.1-0.2-90.1-1c-0.1-17.5-0.2-34.9-0.1-52.4c50.1-0.1 100.3-0.2 150.4 0.2C856.7 789.2 850.2 835 821.8 869.3zM887.5 34.1H136.5L0 284.1c0 58.2 40.9 106.6 96 120.5c10.3 2.6 20.9 4.4 32 4.4c70.7 0 128-56 128-125c0 69 57.3 125 128 125S512 353.1 512 284.1c0 69 57.3 125 128 125s128-56 128-125c0 69 57.3 125 128 125c11.1 0 21.7-1.8 32-4.4C983.1 390.7 1024 342.3 1024 284.1L887.5 34.1z"></path>
	</g>
	<g id="icon_60630" data-name="group-outline">
		<path d="M512 578.8c123.1 0 222.6-99.6 222.6-222.6s-99.6-222.6-222.6-222.6-222.6 99.6-222.6 222.6 99.6 222.6 222.6 222.6zM512 222.6c73.6 0 133.6 59.9 133.6 133.6s-59.9 133.6-133.6 133.6-133.6-59.9-133.6-133.6 59.9-133.6 133.6-133.6zM868.2 623.3c61.5 0 111.3-49.7 111.3-111.3 0-61.5-49.8-111.3-111.3-111.3-61.5 0-111.3 49.8-111.3 111.3 0 61.6 49.8 111.3 111.3 111.3zM868.2 445.2c36.8 0 66.8 30 66.8 66.8s-30 66.8-66.8 66.8-66.8-30-66.8-66.8 30-66.8 66.8-66.8zM868.2 649.6c-59.3 0-103.8 18.1-129.9 43.1-49.6-40.9-128.1-69.4-226.3-69.4-100.9 0-177.9 28.8-226.7 69.6-26.5-25.2-71.6-43.4-129.5-43.4-97.4 0-155.8 48.6-155.8 97.2 0 24.3 58.4 48.6 155.8 48.6 26.9 0 51-2.3 72.3-5.9-0.4 4-1.8 8-1.8 12 0 44.5 107.1 89 285.7 89 167.5 0 285.7-44.5 285.7-89 0-3.8-0.5-7.6-0.9-11.4 20.6 3.2 44.3 5.3 71.4 5.3 91.3 0 155.8-24.4 155.8-48.6 0-48.6-61.1-97.1-155.8-97.1zM155.8 750.7c-58.3 0-92.1-9.2-107.6-15.8 10.6-18 44.7-41 107.6-41 49.3 0 81.8 15.6 98.3 31.4-3.7 5.1-7.5 10.1-10.5 15.3-20.1 5.3-49.3 10-87.8 10zM512 801.4c-96.3 0-155.9-13.9-186.3-25 23.2-30.2 85.4-64.1 186.3-64.1 96.6 0 159.8 33.9 184.7 63.4-33.6 12-96.3 25.6-184.7 25.6zM868.2 750.7c-40.7 0-68.8-4.6-87.8-9.5-3.2-5.7-6.9-11.2-11-16.7 15.8-15.4 47.7-30.5 98.9-30.5 58.9 0 95.3 22.3 107 40.6-17.4 7.3-53.6 16.1-107 16.1zM155.8 623.3c61.5 0 111.3-49.8 111.3-111.3 0-61.4-49.8-111.3-111.3-111.3-61.5 0-111.3 49.9-111.3 111.3 0 61.5 49.8 111.3 111.3 111.3zM155.8 445.2c36.8 0 66.8 30 66.8 66.8s-30 66.8-66.8 66.8-66.8-30-66.8-66.8 30-66.8 66.8-66.8z"></path>
	</g>
	<g id="icon_60680" data-name="health-2">
		<path d="M832 625.6l-64 64-128-320-128 384-192-704-128 640h-192v64h244.5l85.1-425.6 176.3 646.4 139.6-418.8 99.2 247.9 113.9-113.9h165.5v-64z"></path>
	</g>
	<g id="icon_60681" data-name="health-3">
		<path d="M933.5 953h-73.3v71h-146.6v-71h-403.2v71h-146.6v-71h-73.3c-40.5 0-73.3-32.8-73.3-73.3v-623.1c0-40.5 32.8-73.3 73.3-73.3h843c40.5 0 73.3 32.8 73.3 73.3v623.1c0 40.5-32.8 73.3-73.3 73.3zM713.6 513.1h-146.6v-146.6h-110v146.6h-146.6v110h146.6v146.6h110v-146.6h146.6v-110zM640.3 72.5h-219.9v74.1h-73.3v-35.9h36.7v-110.7h291.7v110h38.2v36.7h-73.3v-74.1z"></path>
	</g>
	<g id="icon_316291" data-name="icons_award">
		<path d="M888.9 911.3l-123.4-6.8l-35.9 119.6l-203.8-293.8a81.9 81.9 0 0 1 17.1 8.6a104 104 0 0 0 44.5 13.7h0a21.7 21.7 0 0 0 10.3-1.7c20.6-5.1 34.2-22.2 46.2-37.6a68.9 68.9 0 0 1 22.3-22.2c6.9-3.4 20.6-3.4 32.5-3.4a212.6 212.6 0 0 0 32.6-1.7Zm-452.2-158.8a21.7 21.7 0 0 1-10.3-1.7c-20.6-5.1-34.2-22.2-46.3-37.6a68.2 68.2 0 0 0-22.2-22.2c-6.9-3.4-20.6-3.4-32.5-3.4a212.6 212.6 0 0 1-32.6-1.7L135.1 911.3l123.4-6.8l35.9 119.6l203.8-293.8a81.9 81.9 0 0 0-17.1 8.6C467.5 743.9 452 752.5 436.6 752.5Zm75.4-44.5c-27.4 0-58.2 30.8-82.2 24-25.7-6.9-41.2-46.1-65.1-58.1s-65.1 1.7-85.6-13.7c-20.6-17.1-15.5-59.8-32.6-80.3s-58.2-25.6-70.2-49.5 10.3-59.8 5.2-87.1c-5.2-25.6-41.1-49.5-41.1-76.9s35.9-51.2 41.1-76.9c5.2-27.3-17.1-63.2-5.2-87.1s54.8-29 70.2-49.5c17.1-20.5 12-63.1 32.6-80.3s61.7-3.4 85.6-13.7c24-11.9 37.7-52.9 65.1-58 25.6-5.1 56.5 23.9 82.2 23.9 27.4 0 58.2-30.7 82.2-23.9 25.7 6.8 41.2 46.1 65.1 58s65.1-1.7 85.6 13.7c20.6 17.1 15.5 59.8 32.6 80.3s58.2 25.6 70.2 49.5-10.3 59.8-5.2 87.1c5.2 25.6 41.1 49.5 41.1 76.9s-35.9 51.3-41.1 76.9c-5.2 27.3 17.1 63.2 5.2 87.1s-54.8 29.1-70.2 49.5c-17.1 20.5-12 63.2-32.6 80.3s-61.7 3.4-85.6 13.7c-24 12-37.7 53-65.1 58.1C570.2 738.8 539.4 708 512 708Zm0-52.9c157.6 0 286.1-129.8 286.1-288.7s-128.5-288.6-286.1-288.6-286.1 129.8-286.1 288.6S354.4 655.1 512 655.1Zm0-558.5a269.8 269.8 0 1 0 269 269.8A270.4 270.4-28686.9 0 0 512 96.7Z"></path>
	</g>
	<g id="icon_316289" data-name="icons_book">
		<path d="M22.1 868.6h979.9a21.9 21.9 0 0 0 22-21.9V244.3a22 22 0 0 0-22-21.9h-42.9v-10.4a22.3 22.3 0 0 0-17.4-21.9c-34.8-8.1-338.6-73.9-429.1 0-90.5-73.9-394.3-8.1-429.1 0a22.3 22.3 0 0 0-17.4 21.9v10.4h-44.1a22 22 0 0 0-22 21.9v602.4A20.7 20.7-25568.7 0 0 22.1 868.6Zm511.4-638.2a6.1 6.1 0 0 0 2.3-3.5c45.2-47.3 247-24.2 375.7 2.3v518.2c-49.8-9.3-154.2-27.7-246.9-27.7-49.9 0-97.4 5.8-129.9 20.8v-510h-1.2Zm-423.3-1.2c128.7-27.7 331.7-49.6 375.7-2.3a6.1 6.1 0 0 1 2.3 3.5v510c-93.9-43.8-300.3-8.1-379.2 8.1v-519.3h1.2Z"></path>
	</g>
	<g id="icon_316287" data-name="icons_briefcase">
		<path d="M998.2 224.9h-279.4V126.7a27.2 27.2 0 0 0-27.1-27.2h-358a27.2 27.2 0 0 0-27.1 27.2v98.2h-279.4a27.3 27.3 0 0 0-27.1 27.3v645a27.3 27.3 0 0 0 27.1 27.2h969.7a27.2 27.2 0 0 0 27.1-27.2V252.2A25.3 25.3-24579.6 0 0 998.2 224.9Zm-637.4-70.9h305.1v70.9h-305.1v-70.9Z"></path>
	</g>
	<g id="icon_316290" data-name="icons_gavel">
		<path d="M584.5 835.8l-27-0.5c-0.8-30.1-23.6-54.8-52-55.2l-349.4-5.2c-28.3-0.5-51.8 23.5-53.6 53.7l-27.1-0.4a75.2 75.2 0 0 0-75.6 74.3a2.1 2.1 0 0 0 2.1 2.1l653.6 9.7a2.1 2.1 0 0 0 2.1-2.1A75.2 75.2-28681.1 0 0 584.5 835.8Zm423.9-247l-463-211.2l23.9-53.8a58.3 58.3 0 0 0-1.7-50.8l8 3.7a33.1 33.1 0 0 0 43.9-16.8a33.9 33.9 0 0 0-16.6-44.4l-225.9-103a33 33 0 0 0-43.9 16.8a33.8 33.8 0 0 0 16.6 44.4l16.6 7.6a57.1 57.1 0 0 0-38.6 32.2l-92.2 207.3a58.2 58.2 0 0 0 1.8 50.7l-8-3.7a33.1 33.1 0 0 0-43.9 16.9h0a33.8 33.8 0 0 0 16.6 44.4l225.9 103.1a33 33 0 0 0 43.8-16.8a33.8 33.8 0 0 0-16.6-44.4l-16.6-7.5a57.1 57.1 0 0 0 38.7-32.3l20.9-47l463 211.2a26.2 26.2 0 0 0 34.8-13.4l25.7-57.7A26.8 26.8-28681.1 0 0 1008.4 588.8Z"></path>
	</g>
	<g id="icon_316292" data-name="icons_handshake">
		<path d="M441.6 359.2a89.7 89.7 0 0 1-90.5-42.7l-2.2-5.6l5.6-3.4c15.7-12.4 74.9-48.4 127.5-77.6-14.5-9-52.5-33.7-87.2-37.1-25.7-2.2-52.5 11.2-80.5 25.9a310.2 310.2 0 0 1-199 30.4c-14.6 28.1-115.1 203.6-115.1 203.6 22.4 10.1 91.6 85.4 129.6 109 3.4-3.4 6.7-6.7 10.1-10.1 21.3-19.1 47-31.5 69.3-31.5a42 42 0 0 1 33.6 13.5c14.5 15.7 13.4 41.6-1.1 67.5a74.8 74.8 0 0 1 15.6-2.2a40.3 40.3 0 0 1 30.2 11.2c12.3 10.1 16.8 28.1 14.6 47.2a25.5 25.5 0 0 0-1.1 4.5a65 65 0 0 1 24.6-5.6a47.7 47.7 0 0 1 24.6 6.7c19 12.4 24.6 38.2 16.8 65.2a59.7 59.7 0 0 1 23.5-5.6a36.7 36.7 0 0 1 19 4.5a46.6 46.6 0 0 1 23.4 34.9a81.5 81.5 0 0 1-2.2 28.1c10.1 9 17.9 14.6 19.1 15.7 6.7 6.7 41.3 18 60.3 6.7 20.1-11.2 23.5-24.7 23.5-49.5v-12.4l11.2 6.7a52.4 52.4 0 0 0 55.9 0c12.3-9 17.9-23.6 17.9-45v-11.2l10.1 4.5a51.1 51.1 0 0 0 53.7-6.7a45.1 45.1 0 0 0 13.4-43.9l-2.2-9l8.9 1.1c15.7 1.1 38.1 1.1 52.6-10.1 13.4-11.2 10.1-47.2-1.1-68.6l-194.5-248.5C538.8 327.7 460.6 355.8 441.6 359.2Zm-162.1 320.5a11.9 11.9 0 0 0 2.2-5.6l1.1-1.1h0c27.9-65.2-39.1-70.9-70.4-38.2-52.6 55.1-15.6 124.8 43.6 74.2h0C258.2 704.4 278.3 681.9 279.5 679.7Zm595.9-460s-58.1 29.2-96.1 25.9c-28-2.2-82.8-41.6-87.3-42.7-15.6-4.5-89.4-4.5-131.9 5.6s-171 91.1-192.3 106.9c20.1 29.2 53.6 32.6 71.6 30.4 14.5-2.2 88.3-29.2 125.2-42.7l1.1 2.2c76 91.1 183.3 228.3 200.1 253a190.3 190.3 0 0 0 71.6 6.7c33.5-2.2 63.7-29.2 79.3-42.7a55.9 55.9 0 0 1 11.2-9c5.6-3.4 64.8-70.8 96.1-102.3ZM561.2 310.8h0Zm2.2-9c0 1.1 1.1 1.1 1.1 2.2l-1.1-2.2h0Zm-328.7 244c29.1 33.7-70.4 136.1-110.7 97.9C84.9 605.4 194.5 500.8 234.8 545.8Zm110.6 196.8c15.7-28.1 14.6-61.9-8.9-70.9-24.6-9-46.9 13.5-54.8 22.5-24.6 29.2-27.9 73.1 0 84.4C296.2 786.5 327.5 775.3 345.4 742.6Zm2.8 25.5c12.4-24.3 36.7-36.6 54.3-27.6s21.8 36.1 9.4 60.4-36.6 36.7-54.2 27.6S335.8 792.4 348.2 768.1Z"></path>
	</g>
	<g id="icon_316288" data-name="icons_scales">
		<path d="M986.6 640.5l-114.4-242.9v-4.4a22.5 22.5 0 0 0 0-43.9v-8.8a36.1 36.1 0 0 0 26.4-55a34.9 34.9 0 0 0-30.8-18.6a37.6 37.6 0 0 0-30.8 17.6a64.7 64.7 0 0 0-5.5 13.2c-29.7-7.7-56.1-23-84.7-40.6-47.3-28.6-104.5-63.8-199.1-71.5-1.1-2.2-2.2-3.3-3.3-5.5a84.3 84.3 0 0 0 6.6-37.4c0-27.5-15.4-71.4-27.5-85.7a16.1 16.1 0 0 0-24.2 0c-12.1 14.3-27.5 58.2-27.5 85.7a91.3 91.3 0 0 0 6.6 37.4a24.1 24.1 0 0 0-3.3 5.5c-112.2 6.6-167.2 44-213.4 74.8-24.2 16.5-45.1 30.8-70.4 37.3a33.4 33.4 0 0 0-5.5-13.2a35.3 35.3 0 0 0-61.6 1.1a36.2 36.2 0 0 0 25.3 55v8.8a22.5 22.5 0 0 0 0 43.9v4.4l-112.2 242.9h-37.4c0 44 70.4 79.2 157.3 79.2s157.3-35.2 157.3-79.2h-40.7l-113.3-242.9v-4.4a22.5 22.5 0 0 0 0-43.9v-8.8a22.4 22.4 0 0 0 12.1-3.3c46.2-4.4 77-25.3 110-47.3 44-29.6 92.4-62.6 194.7-69.2a20.3 20.3 0 0 0 5.5 7.7a125.1 125.1 0 0 0-9.9 52.7c0 29.7 7.7 54.9 19.8 68.2v330.8a38.8 38.8 0 0 0-19.8 34.1a37.3 37.3 0 0 0 9.9 26.3a125.5 125.5 0 0 0-9.9 52.8a166.3 166.3 0 0 0 2.2 23.1c-69.3 8.8-119.9 39.6-119.9 76.9h0a39.4 39.4 0 0 0-39.6 39.6h-9.9c-16.5 0-29.7 8.8-29.7 19.8h0c0 10.9 13.2 19.8 29.7 19.8h414.6c16.5 0 29.7-8.8 29.7-19.8h0c0-11-13.2-19.8-29.7-19.8h-9.9a39.4 39.4 0 0 0-39.6-39.6h0c0-37.4-51.7-68.2-119.9-76.9a166.2 166.2 0 0 0 2.2-23.1a129.9 129.9 0 0 0-9.9-52.8a37.5 37.5 0 0 0 9.9-26.3a38.8 38.8 0 0 0-19.8-34.1v-329.7c12.1-13.2 19.8-39.6 19.8-68.2a129.7 129.7 0 0 0-9.9-52.7a47.2 47.2 0 0 0 5.5-7.7c84.7 6.6 136.4 38.5 181.5 65.9 38.5 23.1 74.8 46.2 123.2 49.5a21.5 21.5 0 0 0 11 3.3v8.8a22.5 22.5 0 0 0 0 43.9v4.4l-115.5 242.9h-39.6c0 44 70.4 79.2 157.3 79.2s157.3-35.2 157.3-79.2h-37.4ZM151.8 417.5v223.1h-104.5Zm113.3 223.1h-104.5v-223.1Zm-95.7-269.2a12 12 0 0 1-8.8 12.1v-2.2H151.8v2.2a12.9 12.9 0 0 1-8.8-12.1a12.7 12.7 0 0 1 13.2-13.2A13.4 13.4-24045 0 1 169.4 371.3Zm807.3 269.2h-104.5v-223.1Zm-122.1-269.2a13.2 13.2 0 1 1 26.4 0a12 12 0 0 1-8.8 12.1v-2.2h-8.8v2.2A12 12-24045 0 1 854.6 371.3Zm8.8 46.2v223.1h-104.5Z"></path>
	</g>
	<g id="icon_57357" data-name="instagram">
		<path d="M854 0h-684c-93.5 0-170 76.5-170 170v684c0 93.5 76.5 170 170 170h684c93.5 0 170-76.5 170-170v-684c0-93.5-76.5-170-170-170zM327.8 448h368.4c7 20.1 10.8 41.6 10.8 64 0 107.5-87.5 195-195 195-107.5 0-195-87.5-195-195 0-22.4 3.8-43.9 10.8-64zM896 448v384c0 35.2-28.8 64-64 64h-640c-35.2 0-64-28.8-64-64v-384h100.1c-4.6 20.6-7.1 42-7.1 64 0 160.5 130.5 291 291 291 160.5 0 291-130.5 291-291 0-22-2.5-43.4-7.1-64l100.1 0zM896 224c0 17.6-14.4 32-32 32h-64c-17.6 0-32-14.4-32-32v-64c0-17.6 14.4-32 32-32h64c17.6 0 32 14.4 32 32v64z"></path>
	</g>
	<g id="icon_60968" data-name="left-quote">
		<path d="M1024 896v-384h-256c0-141.1 114.8-256 256-256v-128c-211.7 0-384 172.3-384 384v384h384zM384 896v-384h-256c0-141.1 114.8-256 256-256v-128c-211.7 0-384 172.3-384 384v384h384z"></path>
	</g>
	<g id="icon_61002" data-name="lines">
		<path d="M51.2 256h921.6c28.3 0 51.2-22.9 51.2-51.2s-22.9-51.2-51.2-51.2h-921.6c-28.3 0-51.2 22.9-51.2 51.2s22.9 51.2 51.2 51.2zM972.8 358.4h-921.6c-28.3 0-51.2 22.9-51.2 51.2s22.9 51.2 51.2 51.2h921.6c28.3 0 51.2-22.9 51.2-51.2s-22.9-51.2-51.2-51.2zM972.8 563.2h-921.6c-28.3 0-51.2 22.9-51.2 51.2s22.9 51.2 51.2 51.2h921.6c28.3 0 51.2-22.9 51.2-51.2s-22.9-51.2-51.2-51.2zM972.8 768h-921.6c-28.3 0-51.2 22.9-51.2 51.2s22.9 51.2 51.2 51.2h921.6c28.3 0 51.2-22.9 51.2-51.2s-22.9-51.2-51.2-51.2z"></path>
	</g>
	<g id="icon_61013" data-name="linkedin-2">
		<path d="M231.9 116.6c0 60.5-44.7 109.5-118.1 109.5-69.1 0-113.8-49-113.8-109.5 0-61.9 46.1-109.5 116.7-109.5s113.8 47.6 115.2 109.5zM5.8 1016.8v-704.3h218.9v704.3h-218.9zM355.7 537.2c0-87.8-2.9-161.3-5.8-224.7h190.1l10.1 98h4.3c28.8-46.1 99.4-113.8 217.5-113.8 144 0 252 96.5 252 303.9v416.3h-218.9v-390.3c0-90.7-31.7-152.7-110.9-152.7-60.5 0-96.4 41.8-112.3 82.1-5.8 14.4-7.2 34.5-7.2 54.7v406.2h-218.9v-479.7z"></path>
	</g>
	<g id="icon_61016" data-name="linkedin-5">
		<path d="M232.7 340.7v660.7h-220v-660.7h220zM246.7 136.7q0.7 48.7-33.7 81.3t-90.3 32.7h-1.3q-54.7 0-88-32.7t-33.3-81.3q0-49.3 34.3-81.7t89.7-32.3 88.7 32.3 34 81.7zM1024 622.7v378.7h-219.3v-353.3q0-70-27-109.7t-84.3-39.7q-42 0-70.3 23t-42.3 57q-7.3 20-7.3 54v368.7h-219.3q1.3-266 1.3-431.3t-0.7-197.3l-0.7-32h219.3v96h-1.3q13.3-21.3 27.3-37.3t37.7-34.7 58-29 76.3-10.3q114 0 183.3 75.7t69.3 221.7z"></path>
	</g>
	<g id="icon_61111" data-name="magnifier">
		<path d="M992.4 979.5l-24.3 24.3c-26.9 26.9-70.5 26.9-97.3 0l-194.6-194.6c-22.5-22.6-25-56.4-9.6-82.7l-106.4-106.4c-57.2 42.5-127.8 67.9-204.6 67.9-190 0-344-154-344-344 0-190 154-344 344-344 190 0 344 154 344 344 0 88.4-33.6 168.8-88.5 229.8l104.1 104.1c26.3-15.3 60.2-12.9 82.6 9.7l194.6 194.6c26.9 26.9 26.9 70.5 0 97.4zM612.8 342.6c0-142.5-115.5-258-258-258s-258 115.5-258 258 115.5 258 258 258 258.1-115.5 258.1-258z"></path>
	</g>
	<g id="icon_57344" data-name="mail">
		<path d="M853.3 0h-682.7c-93.9 0-170.7 76.8-170.7 170.7v682.6c0 93.9 76.8 170.7 170.7 170.7h682.7c93.9 0 170.7-76.8 170.7-170.7v-682.6c0-93.9-76.8-170.7-170.7-170.7zM853.3 128c8 0 15.5 2.3 22 6.3l-363.4 300.4-363.4-300.4c6.5-4 14-6.3 22-6.3h682.7zM170.7 896c-1.9 0-3.8-0.1-5.7-0.4l225.6-313-29.3-29.3-233.4 233.4v-611.1l384 464.4 384-464.4v611.1l-233.4-233.4-29.3 29.3 225.6 313c-1.9 0.3-3.7 0.4-5.7 0.4h-682.7z"></path>
	</g>
	<g id="icon_61119" data-name="mail-9">
		<path d="M33.8 243.8c27.8 15 412.4 221.5 426.7 229.2 14.3 7.7 32.8 11.4 51.5 11.4 18.7 0 37.3-3.7 51.5-11.4 14.3-7.7 398.9-214.2 426.7-229.2 27.8-14.9 54.1-61.7 3.1-61.7h-962.5c-51 0-24.8 46.8 3 61.8zM1002 357.6c-31.6 16.5-419.1 219.1-438.4 229.2s-32.8 11.4-51.5 11.4c-18.7 0-32.1-1.3-51.5-11.4s-406.9-212.8-438.4-229.2c-22.2-11.6-22.1 2-22.1 12.5 0 10.5 0 417.3 0 417.3 0 23.9 31.8 54.6 56.4 54.6h911.2c24.7 0 56.4-30.7 56.4-54.6 0 0 0-406.8 0-417.3 0-10.5 0.2-24.1-22-12.5z"></path>
	</g>
	<g id="icon_64059" data-name="menu-16">
		<path d="M0 214.7h1024v66h-1024v-66zm0 266.4h1024l0 64.2h-1024zm0 262.2h1024v66h-1024v-66z"></path>
	</g>
	<g id="icon_61266" data-name="monitor-2">
		<path d="M960 768h-384v128h64q53 0 90.5 37.5t37.5 90.5h-512q0-53 37.5-90.5t90.5-37.5h64v-128h-384q-27 0-45.5-18.5t-18.5-45.5v-640q0-26 18.5-45t45.5-19h896q26 0 45 19t19 45v640q0 27-18.5 45.5t-45.5 18.5zM896 128h-768v512h768v-512zM192 576v-385h512z"></path>
	</g>
	<g id="icon_61267" data-name="monitor-3">
		<path d="M568.9 851h-113.8v59.2l-113.8 19v37.9h339v-35.6l-111.4-21.3v-59.2zM948.1 56.9h-872.3c-41.9 0-75.9 33.9-75.9 75.9v531c0 41.9 33.9 75.9 75.9 75.9h872.3c41.9 0 75.9-34 75.9-75.9v-531c0-41.9-33.9-75.9-75.9-75.9zM507.3 682.7c-20.9 0-37.9-17-37.9-37.9 0-21 17-37.9 37.9-37.9 21 0 37.9 17 37.9 37.9 0 20.9-17 37.9-37.9 37.9zM948.1 549.9h-872.3v-417.2h872.3v417.2z"></path>
	</g>
	<g id="icon_61520" data-name="phone-11">
		<path d="M67 38.2c40.9-41 164.4-47.8 165.4-26.1 0.9 21.7 111.3 262 112.2 283.7 1 21.7-72.7 95.5-94.3 117.2-21.4 21.4 144.2 209 147.3 212.5 3.5 3.2 190.6 169.1 212 147.7 21.6-21.6 95.3-95.5 116.8-94.5 21.6 0.9 261.4 111.5 283 112.5 21.6 0.9 14.8 124.7-26.1 165.7-35 35-216 162.2-530.7-64.9-34.5-19.9-89.2-65.5-172.1-148.6 0 0-0.1-0.1-0.2-0.1-0.1-0.1-0.1-0.1-0.2-0.2s-0.1-0.1-0.2-0.2c0-0.1-0.1-0.1-0.1-0.2-82.8-83.1-128.4-137.9-148.3-172.5-226.6-315.5-99.7-497-64.7-532z"></path>
	</g>
	<g id="icon_61515" data-name="phone-3">
		<path d="M750.9 614.4c-68.3 68.3-68.3 136.5-136.5 136.5s-136.5-68.3-204.8-136.5-136.5-136.5-136.5-204.8 68.3-68.3 136.5-136.5-136.5-273.1-204.8-273.1-204.8 204.8-204.8 204.8c0 136.5 140.3 413.3 273.1 546.1s409.6 273.1 546.1 273.1c0 0 204.8-136.5 204.8-204.8s-204.8-273.1-273.1-204.8z"></path>
	</g>
	<g id="icon_64643" data-name="playbutton">
		<path d="M931 453.6L169.9 9.2c-22.7-12.2-49-12.2-71.7 0s-36.7 35-36.7 61.2l-3.5 881.8c0 24.5 12.2 49 35 61.2c12.2 7 24.5 10.5 36.7 10.5s24.5-3.5 35-10.5l764.6-437.4c22.7-12.2 36.7-35 36.7-61.2C966 490.3 953.8 465.9 931 453.6zM903.1 527.1L138.4 964.5c-7 3.5-12.2 1.7-14 0c-3.5-1.7-7-5.2-7-12.2L120.9 70.4c0-7 5.2-10.5 7-12.2c1.7 0 3.5-1.7 7-1.7c1.7 0 3.5 1.7 5.2 3.5L903.1 502.6c7 3.5 7 8.7 7 12.2S908.3 523.6 903.1 527.1z"></path>
	</g>
	<g id="icon_57806" data-name="search-3">
		<path d="M898.2 938.5l-229.1-336.6c130.9-103.7 167.9-291.4 79.7-438.3-95.9-159.5-303.6-211.3-463.2-115.5-159.5 95.9-211.3 303.6-115.5 463.2 86.4 143.9 263.9 200.1 415 139.4l190.3 361.6c5.9 11.2 19.6 15 30.5 8.5l85.6-51.4c10.9-6.5 13.9-20.4 6.8-30.9zM577.6 534.1c-108.4 65.1-249.6 29.9-314.8-78.5-65.1-108.4-29.9-249.6 78.5-314.7 108.4-65.1 249.6-29.9 314.7 78.5 65.1 108.4 29.9 249.6-78.5 314.7z"></path>
	</g>
	<g id="icon_61991" data-name="search-4">
		<path d="M1005 1005q-19 19-45.5 19t-45.5-19l-198-198q-120 89-268 89-91 0-174-35.5t-143-95.5-95.5-142.5-35.5-174 35.5-174.5 95.5-142.5 143-95 174-35.5 174 35.5 143 95 95.5 142.5 35.5 174q0 149-89 268l198 198q19 19 19 45.5t-19 45.5zM448 129q-87 0-160.5 42.5t-116.5 116.5-43 160.5 43 160.5 116.5 116.5 160.5 42.5 160.5-42.5 116.5-116.5 43-160.5-43-160.5-116.5-116.5-160.5-42.5z"></path>
	</g>
	<g id="icon_61995" data-name="search-8">
		<path d="M1014.9 926.5c12.2 12.2 12.2 32 0 44.2l-44.2 44.2c-12.2 12.2-32 12.2-44.2 0l-309.4-309.4c-3.4-3.4-5.6-7.3-7.1-11.6-63.5 46.4-141.4 74-226 74-212.1 0-384-171.9-384-384 0-212.1 171.9-384 384-384 212.1 0 384 171.9 384 384 0 84.6-27.7 162.6-74 226 4.2 1.5 8.2 3.7 11.6 7.1l309.4 309.4zM384 128c-141.4 0-256 114.6-256 256s114.6 256 256 256 256-114.6 256-256c0-141.4-114.6-256-256-256z"></path>
	</g>
	<g id="icon_62044" data-name="share-11">
		<path d="M853.3 682.7c-51.2 0-96.7 23.1-128 59l-312.5-156.2c8.5-23 13.8-47.5 13.8-73.4s-5.3-50.4-13.8-73.4l312.5-156.2c31.3 35.8 76.8 59 128 59 94.1 0 170.7-76.6 170.7-170.7s-76.5-170.7-170.7-170.7-170.7 76.6-170.7 170.7c0 12.2 1.4 24.1 3.9 35.7l-318.7 159.4c0.1 0.1 0.2 0.3 0.3 0.4-38.9-41.3-93.7-67.4-154.8-67.4-117.6 0-213.3 95.7-213.3 213.3s95.7 213.3 213.3 213.3c61.1 0 115.9-26.2 154.8-67.4-0.1 0.1-0.2 0.3-0.3 0.4l318.7 159.4c-2.5 11.5-3.9 23.4-3.9 35.7 0 94.1 76.5 170.7 170.7 170.7s170.7-76.6 170.7-170.7-76.5-170.7-170.7-170.7zM853.3 85.3c47.1 0 85.3 38.2 85.3 85.3s-38.3 85.3-85.3 85.3-85.3-38.2-85.3-85.3 38.3-85.3 85.3-85.3zM213.3 640c-70.6 0-128-57.4-128-128s57.4-128 128-128 128 57.4 128 128-57.4 128-128 128zM853.3 938.7c-47.1 0-85.3-38.2-85.3-85.3s38.3-85.3 85.3-85.3 85.3 38.2 85.3 85.3-38.3 85.3-85.3 85.3z"></path>
	</g>
	<g id="icon_319880" data-name="skinny-down-arrow">
		<path d="M537.6 0v962.8H486.4V0H537.6Zm-196.3 853.6l35.7-35.6L512 952.9l135.1-134.8l35.7 35.6l-170.7 170.4Z"></path>
	</g>
	<g id="icon_319881" data-name="skinny-up-arrow">
		<path d="M486.4 1024v-962.8H537.6V1024H486.4Zm196.3-853.6l-35.7 35.6L512 71.1l-135.1 134.8L341.3 170.4l170.7-170.4Z"></path>
	</g>
	<g id="icon_62143" data-name="social-pinterest">
		<path d="M535.9 0c-279.4 0-420.3 200.4-420.3 367.4 0 101.3 38.4 191.2 120.4 224.7 13.5 5.5 25.6 0.3 29.5-14.6 2.7-10.4 9.1-36.5 12-47.4 4-14.6 2.4-19.8-8.4-32.7-23.7-27.9-38.8-64.2-38.8-115.4 0-148.6 111.2-281.7 289.6-281.7 158 0 244.8 96.6 244.8 225.4 0 169.6-75.1 312.7-186.5 312.7-61.6 0-107.6-50.9-92.8-113.3 17.7-74.6 51.9-155 51.9-208.7 0-48.2-25.9-88.3-79.3-88.3-62.9 0-113.5 65-113.5 152.2 0 55.6 18.9 93.1 18.9 93.1s-64.5 272.8-75.7 320.5c-22.5 95.1-3.4 211.8-1.7 223.6 0.9 6.9 9.8 8.7 13.9 3.4 5.8-7.6 80.8-100.2 106.2-192.6 7.3-26.2 41.4-161.5 41.4-161.5 20.5 38.9 80.1 73.2 143.7 73.2 189.1 0 317.3-172.3 317.3-403.2-0.2-174.4-148-336.9-372.6-336.9z"></path>
	</g>
	<g id="icon_62230" data-name="stack-checkmark">
		<path d="M320 32v73.9l-167.6 23.6 10.9 77.5-163.3 46.8 211.7 738.2 652.1-187 35.7-5h124.5v-768h-704zM251.5 920.3l-179.7-626.7 99.7-28.6 87.8 625 191.8-27-199.6 57.2zM308.6 824.5l-90.7-645.7 102.1-14.3v635.5h162.8l-174.1 24.5zM384 736v-640h576v160l-45.3-45.3-274.7 242.7-146.7-114.7-58.5 58.5 205.3 237.3 320-350.7v452.2h-576z"></path>
	</g>
	<g id="icon_62254" data-name="star-2">
		<path d="M1024 397l-353.8-51.4-158.2-320.6-158.2 320.6-353.8 51.4 256 249.5-60.4 352.4 316.4-166.4 316.4 166.4-60.4-352.4 256-249.5z"></path>
	</g>
	<g id="icon_62273" data-name="star-outline">
		<path d="M777.9 1002.9c-12.3 0-24.3-2.7-35.4-8-1.9-0.8-3.8-1.7-5.7-2.8l-224.9-128.3-224.9 128.3c-1.9 1.1-3.8 2-5.8 2.9-26.7 12.5-59.4 9.5-83.3-7.8-25.7-18.6-38.4-51.1-32.1-82.6l52.4-254.2c-20.5-18.6-52.7-47.9-87.7-79.8l-103.8-94.4c-1.5-1.4-3-2.9-4.3-4.5-20.5-21.7-27.9-53.1-18.6-81.7 9.5-28.7 33.9-49.9 63.5-55.2 1.9-0.4 3.7-0.8 5.6-1l257.4-28.5 106.5-236c0.9-2.1 2-4.1 3.3-6 14.3-25.9 41.8-42.2 71.7-42.2 29.7 0 57.2 16.3 71.7 42.2 1.2 2 2.2 4 3.3 6.1l106.7 236.1 257.4 28.5c1.9 0.2 3.7 0.5 5.7 0.9 29.5 5.5 54 26.6 63.4 55.4 9.3 28.5 1.9 60.1-18.6 81.8-1.3 1.4-2.8 3-4.3 4.3l-191.5 174.3 52.4 253.6c6.2 32.1-6.5 64.5-32.3 83.2-13.8 10-30.4 15.4-47.9 15.4zM331.7 643.5c-2.1 10-25.5 123-46.3 223.5l199.5-113.7c16.8-9.6 37.5-9.6 54.2 0l199.5 113.6-46.5-224.7c-3.9-18.9 2.5-38.6 16.9-51.6l169.7-154.5-228.2-25.2c-19.2-2.1-35.8-14.2-43.9-32l-94.6-209.2-94.5 209.2c-8 17.6-24.6 29.7-43.9 32l-228.2 25.2 169.7 154.5c14.9 13.5 21 33.8 16.5 52.9z"></path>
	</g>
	<g id="icon_57412" data-name="stumbleupon">
		<path d="M852 0h-680c-94.6 0-172 77.4-172 172v680c0 94.6 77.4 172 172 172h680c94.6 0 172-77.4 172-172v-680c0-94.6-77.4-172-172-172zM512 320c-35.3 0-64 28.7-64 64v256c0 105.9-86.1 192-192 192s-192-86.1-192-192v-128h128v128c0 35.3 28.7 64 64 64s64-28.7 64-64v-256c0-105.9 86.1-192 192-192s192 86.1 192 178v62l-82 24-46-24v-62c0-21.3-28.7-50-64-50zM960 640c0 105.9-86.1 192-192 192s-192-86.1-192-206v-124l46 24 82-24v124c0 49.3 28.7 78 64 78s64-28.7 64-64v-128h128v128z"></path>
	</g>
	<g id="icon_57395" data-name="tumblr">
		<path d="M575.9 448l0 234.2c0 59.4-0.8 93.7 5.5 110.5 6.2 16.8 21.9 34.1 39 44.2 22.7 13.6 48.5 20.4 77.7 20.4 51.9 0 82.5-6.8 133.7-40.5v153.9c-43.7 20.6-81.9 32.6-117.3 40.9-35.5 8.2-73.9 12.4-115.1 12.4-46.8 0-74.5-5.9-110.4-17.7-36-11.9-66.7-28.8-92-50.5-25.4-21.9-43-45.2-52.8-69.8-9.8-24.6-14.7-60.4-14.7-107.2v-359.1h-137.4v-145c40.2-13 85.2-31.8 113.8-56.2 28.8-24.4 51.8-53.7 69.1-87.9 17.4-34.1 29.3-77.7 35.9-130.5h165.1l0 256h256v192h-256z"></path>
	</g>
	<g id="icon_57358" data-name="twitter">
		<path d="M1024 194.4c-37.7 16.7-78.2 28-120.7 33.1 43.4-26 76.7-67.2 92.4-116.2-40.6 24.1-85.6 41.6-133.4 51-38.3-40.8-92.9-66.3-153.3-66.3-116 0-210.1 94.1-210.1 210.1 0 16.5 1.9 32.5 5.4 47.9-174.6-8.8-329.4-92.4-433-219.5-18.1 31-28.4 67.1-28.4 105.6 0 72.9 37.1 137.2 93.5 174.9-34.4-1.1-66.8-10.5-95.2-26.3 0 0.9 0 1.8 0 2.6 0 101.8 72.4 186.7 168.5 206-17.6 4.8-36.2 7.4-55.3 7.4-13.5 0-26.7-1.3-39.5-3.8 26.7 83.5 104.3 144.2 196.3 145.9-71.9 56.4-162.5 89.9-260.9 89.9-17 0-33.7-1-50.1-2.9 93 59.6 203.4 94.4 322 94.4 386.4 0 597.7-320.1 597.7-597.7 0-9.1-0.2-18.2-0.6-27.2 41.1-29.6 76.7-66.6 104.8-108.7z"></path>
	</g>
	<g id="icon_63573" data-name="user-12">
		<path d="M256 320c0-141.4 114.6-256 256-256s256 114.6 256 256c0 141.4-114.6 256-256 256-141.4 0-256-114.6-256-256zM768 640h-512c-141.4 0-256 114.6-256 256v64h1024v-64c0-141.4-114.6-256-256-256z"></path>
	</g>
	<g id="icon_57366" data-name="vimeo">
		<path d="M0 308.4l41.6 54.5c0 0 85.8-67.6 114.4-33.8 28.6 33.8 137.7 442 174.2 517.2 31.8 66 119.5 153.3 215.7 91 96.1-62.3 415.8-335.3 473.1-657.6 57.2-322.2-384.7-254.7-431.5 26 117-70.2 179.4 28.5 119.6 140.4-59.8 111.7-114.4 184.6-143 184.6-28.5 0-50.5-74.8-83.2-205.4-33.8-135.1-33.6-378.5-174.1-350.9-132.5 26-306.7 234-306.7 234z"></path>
	</g>
	<g id="icon_63779" data-name="wrench-7">
		<path d="M840.9 1024c0 0 0 0 0 0-25.4 0-49.6-11.3-66.4-30.9l-354.1-413.2c-37.2 15.8-77.6 24.1-118.3 24.1-166.5 0-302-135.5-302-302 0-29.8 4.4-59.3 13-87.7l15.5-51.1 193.8 193.8c5.2 5.2 12.3 8.1 19.8 8.1s14.6-2.9 19.8-8.1l95.1-95.1c10.9-10.9 10.9-28.7 0-39.6l-193.8-193.8 51.1-15.5c28.4-8.6 57.9-13 87.7-13 166.5 0 302 135.5 302 302 0 40.7-8.3 81.1-24.1 118.3l413.2 354.1c19 16.3 29.9 38.7 30.9 63.1 0.9 24.4-8.3 47.6-25.9 65.3l-95.1 95.1c-16.8 16.8-38.8 26-62 26zM436.3 500.2l386.8 451.2c4.7 5.5 11.1 8.6 17.8 8.6 4.3 0 10.7-1.3 16.7-7.2l95.1-95.1c4.9-4.9 7.5-11.2 7.2-17.6-0.2-6.4-3.3-12.5-8.6-17l-451.2-386.8 12-22.6c18.2-34.1 27.8-72.7 27.8-111.6 0-131.2-106.8-238-238-238-4.2 0-8.3 0.1-12.4 0.3l112.6 112.6c35.9 35.9 35.9 94.2 0 130.1l-95.1 95.1c-17.3 17.3-40.4 26.9-65.1 26.9-24.6 0-47.7-9.5-65.1-26.9l-112.6-112.6c-0.2 4.1-0.3 8.3-0.3 12.4 0 131.2 106.8 238 238 238 38.9 0 77.5-9.6 111.6-27.8l22.6-12.1z"></path>
	</g>
	<g id="icon_63783" data-name="x">
		<path d="M589.3 510.9l285.4 400.1q21 27.9 21 46.9 0 26.9-19 45.4t-44.9 18.5q-7 0-13.5-1t-11.5-3.5-8.5-4.5-8-6-5.5-5.5-5-6.5l-4-5-264.4-369.2-263.4 369.2-4 5t-5 6.5-5.5 5.5-8 6-9 4.5-11.5 3.5-13 1q-25.9 0-44.9-18.5t-19-45.4q0-19 21-46.9l285.4-400.1-290.4-406.1q-1-1-4-5.5t-4.5-6.5-3.5-6.5-2.5-10-0.5-12.5q0-25.9 18.5-44.9t45.4-19q37.9 0 55.9 33.9l262.4 368.2 263.4-368.2q18-33.9 55.9-33.9 26.9 0 45.4 19t18.5 44.9q0 7-0.5 12.5t-2.5 10-3.5 6.5-4.5 6.5-4 5.5z"></path>
	</g>
	<g id="icon_57397" data-name="yahoo">
		<path d="M852.3 640.6l-14.9-418.1c-0.6-17.7 13.3-32.1 31-32.1h128.6c17.7 0 29.6 14.2 26.5 31.7l-74.8 418.6zM964.8 777.3c0 31-25.3 56.3-56.3 56.3h-16.1c-31 0-56.3-25.3-56.3-56.3v-16.1c0-31 25.3-56.3 56.3-56.3h16.1c31 0 56.3 25.3 56.3 56.3v16.1zM385.9 190.4c-213.1 0-385.9 144-385.9 321.6 0 177.6 172.8 321.6 385.9 321.6 213.1 0 385.9-144 385.9-321.6 0-177.6-172.8-321.6-385.9-321.6zM643.2 447.7h-74.6l-118.3 118.3v74.6h96.5v64.3h-257.3v-64.3h96.5v-74.6l-182.7-182.7h-42.3v-64.3h192.6v64.3h-42.3l106.8 106.8 32.2-32.2v-74.6h193v64.3z"></path>
	</g>
	<g id="icon_58880" data-name="yellow-pages">
		<path d="M794 0h-563.9c-95.6 0-173.4 77.8-173.4 173.5v677.3c0 95.5 77.8 173.2 173.4 173.2h563.9c95.6 0 173.3-77.8 173.3-173.2v-677.3c0-95.7-77.7-173.5-173.3-173.5zM885.7 850.8c0 50.4-41.2 91.5-91.7 91.5h-563.9c-50.5 0-91.6-41-91.6-91.5v-9.1c21.6 9.5 48.8 14.9 80.7 14.9 55.1 0 83.6-15.9 108.7-29.9 22.4-12.7 40-22.6 78.4-22.6 39.5 0 78.2 30 78.2 52.4h55c0-22.4 38.7-52.4 78.1-52.4 38.4 0 56.1 9.9 78.4 22.6 25.1 14 53.6 29.9 108.8 29.9 31.6 0 59.1-5.4 80.8-14.9v9.1zM885.7 761.6c-0.1 26.5-48.3 36-80.8 36-40.7 0-59.9-10.7-81.9-23-24.6-13.8-52.4-29.5-105.3-29.5-41 0-80.5 19-105.8 46-25.2-27-64.5-46-105.6-46-52.8 0-80.7 15.7-105.3 29.5-22 12.3-41.1 23-81.8 23-32.4 0-80.5-9.5-80.7-35.9v-589.2c0-50.5 41.1-91.7 91.6-91.7h563.9c50.5 0 91.7 41.2 91.7 91.7v589.1zM288.1 108c0 0 27.8 42.8 22.1 60.9-9.2 29.4-19.5 72.8-4.7 116.9 9.1 27 21.2 37.9 27.7 52.8 6.1 13.8-6.8 31.7-29 69.9-42.4 73-42.4 73-42.4 73 4 1.9 52.2 17.8 102.6-24.6 54.6-46.1 87.2-82.9 87.2-82.9 5.5-5.2 10.8-6 14.8 0.4 5.1 7.7 122 188.1 171.7 264.9 34.4 53.4 41.9 62.4 54.2 76.3 25.8 29.5 65.8 29.1 79.4 17.3l-279.2-624.9h-204.4zM319.3 657.1c-17.4 31.7-8.7 77.9 36.4 78.2l156.2-243.8-54.8-84.9c0 0-4.3 8-137.9 250.6z"></path>
	</g>
	<g id="icon_57386" data-name="yelp">
		<path d="M608.9 653.5c-17.3 17.4-2.7 49.1-2.7 49.1l130.1 217.2c0 0 21.4 28.6 39.9 28.6 18.6 0 37-15.3 37-15.3l102.8-147c0 0 10.4-18.5 10.6-34.8 0.4-23.1-34.5-29.4-34.5-29.4l-243.5-78.2c0 0-23.9-6.3-39.7 9.7zM596.5 544c12.5 21.1 46.8 15 46.8 15l242.9-71c0 0 33.1-13.5 37.8-31.4 4.6-18-5.5-39.6-5.5-39.6l-116.1-136.8c0 0-10.1-17.3-30.9-19-23-2-37.2 25.9-37.2 25.9l-137.3 216c0 0-12.1 21.5-0.7 41zM481.8 459.8c28.6-7 33.1-48.6 33.1-48.6l-1.9-345.9c0 0-4.3-42.7-23.5-54.2-30.1-18.2-39-8.7-47.6-7.4l-201.7 74.9c0 0-19.8 6.5-30 23-14.7 23.4 14.9 57.5 14.9 57.5l209.6 285.8c0 0 20.7 21.4 47 14.9zM431.9 599.7c0.7-26.7-32-42.7-32-42.7l-216.8-109.5c0 0-32.1-13.2-47.7-4-12 7.1-22.5 19.8-23.6 31.1l-14.1 173.8c0 0-2.1 30.1 5.7 43.8 11.1 19.4 47.4 5.9 47.4 5.9l253.1-55.9c9.8-6.6 27.1-7.2 28-42.5zM494.9 693.5c-21.7-11.2-47.7 12-47.7 12l-169.5 186.6c0 0-21.1 28.5-15.8 46.1 5.1 16.4 13.5 24.6 25.3 30.3l170.2 53.7c0 0 20.6 4.3 36.3-0.2 22.2-6.4 18.1-41.2 18.1-41.2l3.8-252.6c0 0-0.9-24.3-20.8-34.6z"></path>
	</g>
	<g id="icon_63802" data-name="youtube-3">
		<path d="M628 710.9v120.6q0 38.3-22.3 38.3-13.1 0-25.7-12.6v-172q12.6-12.6 25.7-12.6 22.3 0 22.3 38.3zM821.1 711.4v26.3h-51.4v-26.3q0-38.9 25.7-38.9t25.7 38.9zM269.1 586.9h61.1v-53.7h-178.3v53.7h60v325.1h57.1v-325.1zM433.7 912h50.9v-282.3h-50.9v216q-17.1 24-32.6 24-10.3 0-12-12-0.6-1.7-0.6-20v-208h-50.9v223.4q0 28 4.6 41.7 6.9 21.1 33.1 21.1 27.4 0 58.3-34.9v30.9zM678.9 827.4v-112.6q0-41.7-5.1-56.6-9.7-32-40.6-32-28.6 0-53.1 30.9v-124h-50.9v378.9h50.9v-27.4q25.7 31.4 53.1 31.4 30.9 0 40.6-31.4 5.1-15.4 5.1-57.1zM872 821.7v-7.4h-52q0 29.1-1.1 34.9-4 20.6-22.9 20.6-26.3 0-26.3-39.4v-49.7h102.3v-58.9q0-45.1-15.4-66.3-22.3-29.1-60.6-29.1-38.9 0-61.1 29.1-16 21.1-16 66.3v98.9q0 45.1 16.6 66.3 22.3 29.1 61.7 29.1 41.1 0 61.7-30.3 10.3-15.4 12-30.9 1.1-5.1 1.1-33.1zM524.6 300v-120q0-39.4-24.6-39.4t-24.6 39.4v120q0 40 24.6 40t24.6-40zM935.4 729.1q0 133.7-14.9 200-8 33.7-33.1 56.6t-58.3 26.3q-105.1 12-317.1 12t-317.1-12q-33.1-3.4-58.6-26.3t-32.9-56.6q-14.9-64-14.9-200 0-133.7 14.9-200 8-33.7 33.1-56.6t58.9-26.9q104.6-11.4 316.6-11.4t317.1 11.4q33.1 4 58.6 26.9t32.9 56.6q14.9 64 14.9 200zM365.1 0h58.3l-69.1 228v154.9h-57.1v-154.9q-8-42.3-34.9-121.1-21.1-58.9-37.1-106.9h60.6l40.6 150.3zM576.6 190.3v100q0 46.3-16 67.4-21.1 29.1-60.6 29.1-38.3 0-60-29.1-16-21.7-16-67.4v-100q0-45.7 16-66.9 21.7-29.1 60-29.1 39.4 0 60.6 29.1 16 21.1 16 66.9zM768 97.7v285.1h-52v-31.4q-30.3 35.4-58.9 35.4-26.3 0-33.7-21.1-4.6-13.7-4.6-42.9v-225.1h52v209.7q0 18.9 0.6 20 1.7 12.6 12 12.6 15.4 0 32.6-24.6v-217.7h52z"></path>
	</g>
	<g id="icon_63803" data-name="youtube-4">
		<path d="M928 864q-222 32-416 32-86 0-190-8t-165-16l-61-8q-27-5-47.5-37.5t-30-78.5-14-86-4.5-73v-154q0-255 96-275 222-32 416-32 86 0 190 8t165 16l61 8q29 4 49.5 36.5t29.5 79.5 13 86 4 73v154q0 36-3 73t-12 85-30 80-51 37zM693 487l-262-160q-11-10-29-5.5t-18 14.5v352q0 11 18 15t29-6l262-160q11-10 11-25t-11-25z"></path>
	</g>
</svg>